<svg xmlns="http://www.w3.org/2000/svg" viewBox="0 0 226.02 62.46"><defs><style>.cls-1{fill:#f69220;}.cls-2{fill:#404041;}</style></defs><title>Asset 16</title><g id="Layer_2" data-name="Layer 2"><g id="Layer_1-2" data-name="Layer 1"><path class="cls-1" d="M88.16,16.62v.25a1,1,0,0,0,1.59.73,16.6,16.6,0,0,1,3.77-2.29,15.56,15.56,0,0,1,6.17-1.24,15.92,15.92,0,0,1,12.13,5.4q5,5.4,5,13.84a19.09,19.09,0,0,1-5.16,13.62,16.27,16.27,0,0,1-12.23,5.48,15.38,15.38,0,0,1-5.87-1.12,16.64,16.64,0,0,1-4.39-2.78.62.62,0,0,0-1,.56V61a1.45,1.45,0,0,1-1.45,1.46H80.55A1.46,1.46,0,0,1,79.08,61V17.09A2.08,2.08,0,0,1,81.16,15h5.39A1.61,1.61,0,0,1,88.16,16.62ZM98,22.52a9.2,9.2,0,0,0-7,2.95,10.77,10.77,0,0,0-2.78,7.7A11.12,11.12,0,0,0,91,41q3.78,4.08,10.23,2.61a1.48,1.48,0,0,0,.35-.13,11,11,0,0,0,6.1-10.3A11,11,0,0,0,105,25.52,9,9,0,0,0,98,22.52Z"/><path class="cls-2" d="M16.51,17.27A2.26,2.26,0,0,1,18.76,15h5.33a1.56,1.56,0,0,1,1.56,1.56h0a1.12,1.12,0,0,0,1.83.88,14.68,14.68,0,0,1,3.39-2.1,15.19,15.19,0,0,1,6.25-1.28A11.43,11.43,0,0,1,47,19.48a.92.92,0,0,0,1.48.08,14.34,14.34,0,0,1,4.54-3.81A14.61,14.61,0,0,1,60,14.07a12.84,12.84,0,0,1,6.84,1.81,10.45,10.45,0,0,1,4.25,4.73q1.29,2.91,1.29,9.48V49.64a1.84,1.84,0,0,1-1.84,1.83H64.86a1.7,1.7,0,0,1-1.71-1.71V33q0-6.19-1.54-8.39A5.3,5.3,0,0,0,57,22.38a7,7,0,0,0-4.2,1.34A8,8,0,0,0,50,27.43a23.09,23.09,0,0,0-.9,7.59V49.49a2,2,0,0,1-2,2h-5a2.2,2.2,0,0,1-2.2-2.19V33.81a25,25,0,0,0-.72-7.09A6.38,6.38,0,0,0,37,23.46a5.69,5.69,0,0,0-3.5-1.08,6.94,6.94,0,0,0-4.15,1.36,8.17,8.17,0,0,0-2.79,3.8,23.74,23.74,0,0,0-.92,7.71V49.53a1.94,1.94,0,0,1-1.94,1.94h-5.2a2,2,0,0,1-2-2Z"/><path class="cls-1" d="M152.6,15h6.57a1.27,1.27,0,0,1,1.27,1.27v35a1.81,1.81,0,0,1-1.81,1.81H153a1.71,1.71,0,0,1-1.72-1.73l0-3a.33.33,0,0,0-.56-.24,17.26,17.26,0,0,1-4.81,3.15,15,15,0,0,1-5.84,1.12,16.21,16.21,0,0,1-12.22-5.48,19.13,19.13,0,0,1-5.15-13.62q0-8.45,5-13.84a15.93,15.93,0,0,1,12.12-5.39A15.34,15.34,0,0,1,146,15.32a16.17,16.17,0,0,1,3.81,2.34.92.92,0,0,0,1.51-.69v-.64A1.31,1.31,0,0,1,152.6,15Zm-11.25,7.5a8.82,8.82,0,0,0-6.82,3,11,11,0,0,0-2.71,7.69,11,11,0,0,0,6,10.28,1.59,1.59,0,0,0,.43.16c4.21,1,7.57.09,10-2.62A11.19,11.19,0,0,0,151,33.17a10.84,10.84,0,0,0-2.75-7.7A9.06,9.06,0,0,0,141.35,22.52Z"/><path class="cls-2" d="M213.16,1.57h5.72a1.72,1.72,0,0,1,1.71,1.72V13.75A1.26,1.26,0,0,0,221.86,15h2.45A1.72,1.72,0,0,1,226,16.73v4.44a1.72,1.72,0,0,1-1.71,1.72h-2.4a1.32,1.32,0,0,0-1.32,1.31V49.76a1.72,1.72,0,0,1-1.71,1.71h-5.72a1.72,1.72,0,0,1-1.72-1.71V24.17a1.27,1.27,0,0,0-1.27-1.28h-1.7a1.72,1.72,0,0,1-1.72-1.72V16.73A1.72,1.72,0,0,1,208.47,15h1.86a1.11,1.11,0,0,0,1.11-1.11V3.29A1.72,1.72,0,0,1,213.16,1.57Z"/><path class="cls-2" d="M4.17.19A5.84,5.84,0,0,1,9.94,1.74,5.77,5.77,0,0,1,11.66,6,5.74,5.74,0,0,1,10,10.14a5.54,5.54,0,0,1-4.08,1.72A5.59,5.59,0,0,1,1.72,10.1,5.89,5.89,0,0,1,0,5.83,5.92,5.92,0,0,1,2.92.72,3.63,3.63,0,0,1,4.17.19ZM3.39,15H8.24a2.16,2.16,0,0,1,2.15,2.15V49.32a2.15,2.15,0,0,1-2.15,2.15H3.39a2.15,2.15,0,0,1-2.15-2.15V17.16A2.15,2.15,0,0,1,3.39,15Z"/><path class="cls-2" d="M201.25,23.62l-4.17,2.29a2,2,0,0,1-2.35-.27,11.38,11.38,0,0,0-3.22-2.12,12.71,12.71,0,0,0-4.91-.87,11.44,11.44,0,0,0-8.3,3.06,10.41,10.41,0,0,0-3.17,7.85,10.09,10.09,0,0,0,3.05,7.6,11.07,11.07,0,0,0,8,2.94A12.23,12.23,0,0,0,194,41.68a3.44,3.44,0,0,1,4.09-.2l3,2.07a2,2,0,0,1,.36,3.08q-5.67,5.85-15,5.85-9.61,0-15.06-5.7a19.14,19.14,0,0,1-2.8-23.09,18.68,18.68,0,0,1,7.39-7,22,22,0,0,1,10.6-2.55,21.57,21.57,0,0,1,9.76,2.16,18.56,18.56,0,0,1,5.44,4.11A2.06,2.06,0,0,1,201.25,23.62Z"/></g></g></svg>