<svg xmlns="http://www.w3.org/2000/svg" viewBox="0 0 176.35 30.81"><defs><style>.cls-1,.cls-2{fill:#f68a33;}.cls-1{fill-rule:evenodd;}</style></defs><title>Asset 2</title><g id="Layer_2" data-name="Layer 2"><g id="Layer_1-2" data-name="Layer 1"><polygon class="cls-1" points="5.09 30.36 0 30.36 0 0.53 5.24 0.53 22.5 23.11 22.26 0.53 27.28 0.53 27.28 30.36 22.4 30.36 4.75 7.11 5.09 30.36"/><path class="cls-1" d="M52,12.86a10.21,10.21,0,0,0-3.28-5.43,8.5,8.5,0,0,0-5.58-1.92,9,9,0,0,0-5.79,2A10.06,10.06,0,0,0,34,12.86ZM33.85,17.45a9.67,9.67,0,0,0,3.2,5.76A9.05,9.05,0,0,0,51,20.77H56.7A16.2,16.2,0,0,1,51.25,28a13.67,13.67,0,0,1-8.14,2.5,14.37,14.37,0,0,1-5.72-1.11,14.16,14.16,0,0,1-4.7-3.33A15.57,15.57,0,0,1,29.6,21.2a15.42,15.42,0,0,1-.09-11.26,14.91,14.91,0,0,1,3-4.74,14.14,14.14,0,0,1,4.75-3.49A13.91,13.91,0,0,1,43,.53a14.22,14.22,0,0,1,6.91,1.75,14.82,14.82,0,0,1,5.27,4.85A14.94,14.94,0,0,1,57,11.38a21.52,21.52,0,0,1,.58,5.27v.8Z"/><path class="cls-1" d="M143.85,12.86a10.21,10.21,0,0,0-3.28-5.43A8.5,8.5,0,0,0,135,5.51a9,9,0,0,0-5.79,2,10.06,10.06,0,0,0-3.37,5.38Zm-18.18,4.59a9.64,9.64,0,0,0,3.2,5.76,9.37,9.37,0,0,0,10.64,1,8.77,8.77,0,0,0,3.29-3.43h5.72A16.13,16.13,0,0,1,143.07,28a13.69,13.69,0,0,1-8.14,2.5,14.46,14.46,0,0,1-5.73-1.11,14.23,14.23,0,0,1-4.69-3.33,15.57,15.57,0,0,1-3.09-4.85,15.09,15.09,0,0,1-1.11-5.66,15.39,15.39,0,0,1,1-5.6,14.77,14.77,0,0,1,3-4.74A13.71,13.71,0,0,1,134.83.53a14.25,14.25,0,0,1,6.91,1.75A14.82,14.82,0,0,1,147,7.13a14.64,14.64,0,0,1,1.82,4.25,21.07,21.07,0,0,1,.59,5.27v.8Z"/><path class="cls-1" d="M156.54,30.36h-5.26V1h5.05V4.35A10.33,10.33,0,0,1,160,1.46a10.67,10.67,0,0,1,4.52-.92q5.75,0,8.81,3.38t3.07,9.72V30.36h-5.29V14.79q0-4.68-1.72-6.93A6.32,6.32,0,0,0,164,5.61q-3.92,0-5.69,2.65T156.54,17Z"/><polygon class="cls-2" points="55.37 0.52 59.74 0.52 59.95 0.52 60.02 0.72 66.17 22.29 71.7 0.73 71.76 0.52 71.97 0.52 75.19 0.52 75.41 0.52 75.46 0.73 80.97 22.29 87.11 0.72 87.16 0.52 87.37 0.52 91.76 0.52 92.14 0.52 92.02 0.88 83.06 30.15 83 30.35 82.79 30.35 78.9 30.35 78.68 30.35 78.62 30.14 73.56 9.39 68.45 30.14 68.4 30.35 68.18 30.35 64.35 30.35 64.14 30.35 64.08 30.15 55.1 0.88 54.99 0.52 55.37 0.52"/><path class="cls-2" d="M101.24,15h18.21v.31c0,.63-.08,1.26-.16,1.88s-.18,1.2-.31,1.78a15.42,15.42,0,0,1-4,7.54h0a15.89,15.89,0,0,1-1.21,1.12,13.2,13.2,0,0,1-1.31.95,14.49,14.49,0,0,1-8,2.24h0a15,15,0,0,1-3.18-.33l-.5-.11a14.11,14.11,0,0,1-2.44-.85,14.74,14.74,0,0,1-2.66-1.59,16.83,16.83,0,0,1-2.36-2.21h0c-.17-.18-.33-.38-.51-.59l-.48-.62a14.36,14.36,0,0,1-1.86-3.56h0c-.1-.25-.18-.5-.26-.75s-.15-.52-.22-.77a17.34,17.34,0,0,1-.5-4.18,15.29,15.29,0,0,1,.3-3,14.81,14.81,0,0,1,.87-2.87A15.21,15.21,0,0,1,92,6.67a15.8,15.8,0,0,1,2-2.38,15.41,15.41,0,0,1,2.27-1.88,13,13,0,0,1,2.53-1.34,14.33,14.33,0,0,1,2.8-.8A17.08,17.08,0,0,1,104.71,0a15.77,15.77,0,0,1,4.19.53,13.2,13.2,0,0,1,3.65,1.58h0c.31.2.62.41.91.63s.58.45.85.69a13.65,13.65,0,0,1,3.34,4.69l.17.39H112.1L112,8.4a9.62,9.62,0,0,0-1.54-1.58,8.26,8.26,0,0,0-1.78-1.13h0l-.54-.24-.57-.2a10.25,10.25,0,0,0-3.19-.48,9.6,9.6,0,0,0-1.94.2,8.78,8.78,0,0,0-1.85.57h0l-.5.22L99.63,6a9.83,9.83,0,0,0-2.22,1.71h0L97,8.16l-.37.45a11,11,0,0,0-1.5,2.6h0l-.21.56-.18.56a10.38,10.38,0,0,0-.42,2.93h0a12.76,12.76,0,0,0,.18,2.16l.07.35a10.87,10.87,0,0,0,.48,1.69h0l.22.55.25.52a9.41,9.41,0,0,0,1.64,2.33h0l.42.42.43.38a9.77,9.77,0,0,0,2.5,1.55,8.72,8.72,0,0,0,1.91.63,9.1,9.1,0,0,0,2,.21,10.32,10.32,0,0,0,3-.43,9,9,0,0,0,2.64-1.29h0c.23-.16.45-.33.67-.51l.64-.57a13.78,13.78,0,0,0,2.55-3.63H101V15Z"/></g></g></svg>